<?xml version="1.0" encoding="UTF-8" standalone="no"?>
<svg 
    role="img" 
    xmlns="http://www.w3.org/2000/svg" 
    width="1000mm"
    height="1000mm"
    viewBox="0 0 1000 1000"
    style="max-width:1.6em; height: auto;">
    
    <path 
        id="path" 
        style="opacity:1;vector-effect:none;fill:#000000;fill-opacity:1;"
        d=" M 156 725C 156 725 156 825 156 825C 156 825 844 825 844 825C 844 825 844 725 844 725C 844 725 156 725 156 725M 156 675C 156 675 844 675 844 675C 871 675 894 698 894 725C 894 725 894 825 894 825C 894 852 871 875 844 875C 844 875 156 875 156 875C 129 875 106 852 106 825C 106 825 106 725 106 725C 106 698 129 675 156 675M 156 450C 156 450 156 550 156 550C 156 550 844 550 844 550C 844 550 844 450 844 450C 844 450 156 450 156 450M 156 400C 156 400 844 400 844 400C 871 400 894 423 894 450C 894 450 894 550 894 550C 894 577 871 600 844 600C 844 600 156 600 156 600C 129 600 106 577 106 550C 106 550 106 450 106 450C 106 423 129 400 156 400M 156 175C 156 175 156 275 156 275C 156 275 844 275 844 275C 844 275 844 175 844 175C 844 175 156 175 156 175M 156 125C 156 125 844 125 844 125C 871 125 894 148 894 175C 894 175 894 275 894 275C 894 302 871 325 844 325C 844 325 156 325 156 325C 129 325 106 302 106 275C 106 275 106 175 106 175C 106 148 129 125 156 125"
        transform="">
    </path>    
</svg>